<svg width="28" height="28" viewBox="0 0 28 28" fill="none" xmlns="http://www.w3.org/2000/svg">
<path d="M13.1273 9.42433V12.761L11.949 12.3527C11.354 12.1427 10.9923 11.9443 10.9923 10.9293C10.9923 10.101 11.6106 9.42433 12.369 9.42433H13.1273ZM17.01 17.0672C17.01 17.8955 16.3916 18.5722 15.6333 18.5722H14.875V15.2355L16.0533 15.6438C16.6483 15.8538 17.01 16.0522 17.01 17.0672Z" fill="#121212"/>
<path d="M18.8884 2.33333H9.11171C4.86504 2.33333 2.33337 4.865 2.33337 9.11167V18.8883C2.33337 23.135 4.86504 25.6667 9.11171 25.6667H18.8884C23.135 25.6667 25.6667 23.135 25.6667 18.8883V9.11167C25.6667 4.865 23.135 2.33333 18.8884 2.33333ZM16.6367 14C17.5467 14.315 18.76 14.98 18.76 17.0683C18.76 18.865 17.36 20.3233 15.6334 20.3233H14.875V21C14.875 21.4783 14.4784 21.875 14 21.875C13.5217 21.875 13.125 21.4783 13.125 21V20.3233H12.705C10.7917 20.3233 9.24004 18.7017 9.24004 16.7183C9.24004 16.4863 9.33223 16.2637 9.49632 16.0996C9.66042 15.9355 9.88298 15.8433 10.115 15.8433C10.3471 15.8433 10.5697 15.9355 10.7338 16.0996C10.8979 16.2637 10.99 16.4863 10.99 16.7183C10.99 17.745 11.76 18.5733 12.705 18.5733H13.125V14.6183L11.3634 14C10.4534 13.685 9.24004 13.02 9.24004 10.9317C9.24004 9.135 10.64 7.67667 12.3667 7.67667H13.125V7C13.125 6.52167 13.5217 6.125 14 6.125C14.4784 6.125 14.875 6.52167 14.875 7V7.67667H15.295C17.2084 7.67667 18.76 9.29833 18.76 11.2817C18.76 11.5137 18.6679 11.7363 18.5038 11.9004C18.3397 12.0645 18.1171 12.1567 17.885 12.1567C17.653 12.1567 17.4304 12.0645 17.2663 11.9004C17.1022 11.7363 17.01 11.5137 17.01 11.2817C17.01 10.255 16.24 9.42667 15.295 9.42667H14.875V13.3817L16.6367 14Z" fill="#121212"/>
</svg>
