<svg xmlns="http://www.w3.org/2000/svg" viewBox="0 0 1749.904 240.168"><path d="M157.986,634.937q-20.754,0-34.589-3.911T101.215,620.95q-8.347-6.164-11.881-13.835A36.07,36.07,0,0,1,85.8,591.926a27.832,27.832,0,0,1,2.932-13.385,25.7,25.7,0,0,1,7.821-8.872,32.041,32.041,0,0,1,11.128-4.963,55.421,55.421,0,0,1,13.009-1.5,77.3,77.3,0,0,0,3.158,23.235,48.725,48.725,0,0,0,8.722,16.693,35.69,35.69,0,0,0,13.31,10.075,41.786,41.786,0,0,0,16.918,3.384,47.1,47.1,0,0,0,16.092-2.557,35.659,35.659,0,0,0,12.03-7.067,29.745,29.745,0,0,0,7.52-10.6A33.651,33.651,0,0,0,201,583.2a29.774,29.774,0,0,0-3.159-13.91,36.1,36.1,0,0,0-9.549-11.279,84.191,84.191,0,0,0-16.092-9.926q-9.7-4.737-22.633-10.151a177.053,177.053,0,0,1-27.145-13.61,75.373,75.373,0,0,1-17.82-15.114,50.814,50.814,0,0,1-9.7-17.6,69.925,69.925,0,0,1-2.932-20.754A56.348,56.348,0,0,1,97.681,445.3a58.39,58.39,0,0,1,15.79-19.55,72.29,72.29,0,0,1,23.912-12.482,99.586,99.586,0,0,1,30.077-4.361,134.878,134.878,0,0,1,29.326,2.782q12.328,2.784,20.377,7.594a33.59,33.59,0,0,1,11.956,11.355,26.945,26.945,0,0,1,3.91,14.061,22.224,22.224,0,0,1-2.331,10.076,22.564,22.564,0,0,1-7.068,8.121,36.151,36.151,0,0,1-11.881,5.414,63.236,63.236,0,0,1-16.618,1.955,61.78,61.78,0,0,0-1.729-13.911,46.553,46.553,0,0,0-5.639-13.836,34.205,34.205,0,0,0-10.152-10.6A26.4,26.4,0,0,0,162.5,427.7a37.776,37.776,0,0,0-11.731,1.805,27.429,27.429,0,0,0-9.7,5.414,25.7,25.7,0,0,0-6.542,8.948,29.539,29.539,0,0,0-2.406,12.256,34.9,34.9,0,0,0,2.106,12.182,30.756,30.756,0,0,0,7.745,11.2,73.622,73.622,0,0,0,15.489,10.979A231.861,231.861,0,0,0,182.95,502.3a193.062,193.062,0,0,1,26.92,13.234,84.174,84.174,0,0,1,18.272,14.513,48.667,48.667,0,0,1,10.376,16.993,61.9,61.9,0,0,1,3.233,20.528,63.054,63.054,0,0,1-5.865,27.295,60.147,60.147,0,0,1-16.843,21.28,80.978,80.978,0,0,1-26.393,13.836A112.863,112.863,0,0,1,157.986,634.937Z" transform="translate(-85.8 -394.769)"/><path d="M351.383,634.937q-19.551,0-34.513-5.715a65.52,65.52,0,0,1-25.04-16.543,70.179,70.179,0,0,1-15.189-26.543q-5.115-15.714-5.113-35.867,0-21.656,5.113-38.048t14.888-27.371a61.063,61.063,0,0,1,23.987-16.467q14.212-5.488,32.409-5.489A89.747,89.747,0,0,1,378,467.631a59.838,59.838,0,0,1,22.708,14.061A61.631,61.631,0,0,1,415,504.852q4.963,13.837,4.963,32.183v15.79H319.05a119.248,119.248,0,0,0,3.384,26.618,55.414,55.414,0,0,0,8.121,18.348,32.134,32.134,0,0,0,12.633,10.678,40.07,40.07,0,0,0,17.068,3.458,54.893,54.893,0,0,0,14.738-1.879,47.385,47.385,0,0,0,12.257-5.264,43.817,43.817,0,0,0,9.624-7.971,46.221,46.221,0,0,0,6.843-9.85q8.269,4.512,8.271,15.039a23.794,23.794,0,0,1-3.609,12.557,31.68,31.68,0,0,1-11.129,10.452,66.838,66.838,0,0,1-18.873,7.218A117.655,117.655,0,0,1,351.383,634.937ZM348.526,482.9q-12.936,0-20.527,12.783t-8.347,37.447h53.237a147.535,147.535,0,0,0-1.354-21.055,58.885,58.885,0,0,0-4.285-15.79,25.09,25.09,0,0,0-7.52-9.926A18.083,18.083,0,0,0,348.526,482.9Z" transform="translate(-85.8 -394.769)"/><path d="M529.592,610.123a77.136,77.136,0,0,0,11.5-.827q5.488-.825,10.3-2.03v20a49.675,49.675,0,0,1-6.541,2.556,88.5,88.5,0,0,1-9.625,2.482q-5.491,1.128-12.407,1.88a140.015,140.015,0,0,1-15.039.752,66.42,66.42,0,0,1-18.8-2.482,33.367,33.367,0,0,1-14.287-8.271,37.934,37.934,0,0,1-9.023-15.038q-3.158-9.25-3.158-22.785v-98.5H439.36V472.067a39.116,39.116,0,0,0,17.746-3.91,42.2,42.2,0,0,0,12.482-9.023q9.474-9.926,14.137-30.529H509.29v38.2h39.4v21.054h-39.4V583.2q0,13.986,4.737,20.453T529.592,610.123Z" transform="translate(-85.8 -394.769)"/><path d="M646.594,481.692a17.167,17.167,0,0,0-16.242,9.4,32.88,32.88,0,0,0-3.384,10.527,84.06,84.06,0,0,0-.977,13.31q-20.754,0-31.206-4.662t-10.452-15.941a21.749,21.749,0,0,1,5.038-14.438,36.374,36.374,0,0,1,13.686-9.775,80.7,80.7,0,0,1,20.151-5.489,165.823,165.823,0,0,1,24.589-1.729,127.732,127.732,0,0,1,28.348,2.782q12.1,2.784,20.151,8.948A37.855,37.855,0,0,1,708.4,490.791q4.061,10,4.06,24.438v78.5a47.551,47.551,0,0,0,.977,10.528,15.638,15.638,0,0,0,3.083,6.692,11.474,11.474,0,0,0,5.715,3.533,31.381,31.381,0,0,0,8.723,1.053h1.2v16.393h-57.3l-6.466-21.2h-2.707q-5.115,6.166-9.625,10.752a46.746,46.746,0,0,1-9.625,7.594,39.536,39.536,0,0,1-11.5,4.437,70.137,70.137,0,0,1-15.113,1.429,58.457,58.457,0,0,1-19.024-3.008,41.24,41.24,0,0,1-15.34-9.249,43.618,43.618,0,0,1-10.3-15.64q-3.762-9.4-3.76-22.183,0-25.113,17.219-37.145t51.809-13.084l25.265-.9V516.732q0-7.669-.6-14.136a38.02,38.02,0,0,0-2.556-11.129,15.75,15.75,0,0,0-5.79-7.218Q652.91,481.693,646.594,481.692ZM619.223,586.061q0,13.234,4.211,19.851t13.234,6.616a25.466,25.466,0,0,0,11.956-2.781,26.985,26.985,0,0,0,9.173-7.895,36.963,36.963,0,0,0,5.866-12.408,60.837,60.837,0,0,0,2.03-16.317V549.968l-13.836.9a49.2,49.2,0,0,0-15.49,2.933,25.1,25.1,0,0,0-10.075,6.843,26.244,26.244,0,0,0-5.415,10.676A58.488,58.488,0,0,0,619.223,586.061Z" transform="translate(-85.8 -394.769)"/><path d="M851.12,631.929H748.255V615.536h.9a56.67,56.67,0,0,0,9.625-.752A17.409,17.409,0,0,0,766.3,611.7a14.852,14.852,0,0,0,4.888-6.691,32.071,32.071,0,0,0,1.729-11.58V504.1a31.16,31.16,0,0,0-1.579-10.9,14.214,14.214,0,0,0-4.511-6.392,15.413,15.413,0,0,0-6.994-2.932,56.073,56.073,0,0,0-9.173-.677h-.9V466.8h62.26l6.166,24.062h1.5a70.13,70.13,0,0,1,6.618-12.107,33.782,33.782,0,0,1,8.647-8.647,36.683,36.683,0,0,1,11.88-5.188,67.333,67.333,0,0,1,16.317-1.73q18.2,0,26.769,6.392t8.572,18.573q0,14.136-10.226,21.956t-28.874,7.821a80.85,80.85,0,0,0-.677-11.129,23.418,23.418,0,0,0-2.406-7.971,12,12,0,0,0-4.662-4.812,14.683,14.683,0,0,0-7.294-1.654,15.967,15.967,0,0,0-9.324,2.707,23.873,23.873,0,0,0-6.617,6.992,41.931,41.931,0,0,0-4.436,9.7,84.053,84.053,0,0,0-2.707,10.9,90.632,90.632,0,0,0-1.279,10.453q-.3,4.962-.3,8.571v53.238a29.821,29.821,0,0,0,1.655,10.9,13.891,13.891,0,0,0,4.511,6.24,15.782,15.782,0,0,0,6.843,2.782,50.663,50.663,0,0,0,8.5.677h9.926Z" transform="translate(-85.8 -394.769)"/><path d="M986.018,481.692a17.167,17.167,0,0,0-16.243,9.4,32.9,32.9,0,0,0-3.384,10.527,84.06,84.06,0,0,0-.977,13.31q-20.754,0-31.206-4.662t-10.451-15.941a21.754,21.754,0,0,1,5.037-14.438,36.374,36.374,0,0,1,13.686-9.775,80.7,80.7,0,0,1,20.151-5.489,165.837,165.837,0,0,1,24.59-1.729,127.722,127.722,0,0,1,28.347,2.782q12.1,2.784,20.153,8.948a37.867,37.867,0,0,1,12.105,16.167q4.06,10,4.061,24.438v78.5a47.558,47.558,0,0,0,.976,10.528,15.65,15.65,0,0,0,3.084,6.692,11.474,11.474,0,0,0,5.715,3.533,31.376,31.376,0,0,0,8.723,1.053h1.2v16.393h-57.3l-6.467-21.2h-2.707q-5.112,6.166-9.623,10.752a46.8,46.8,0,0,1-9.625,7.594,39.542,39.542,0,0,1-11.506,4.437,70.131,70.131,0,0,1-15.113,1.429,58.462,58.462,0,0,1-19.024-3.008,41.236,41.236,0,0,1-15.339-9.249,43.607,43.607,0,0,1-10.3-15.64q-3.76-9.4-3.76-22.183,0-25.113,17.219-37.145t51.81-13.084l25.263-.9V516.732q0-7.669-.6-14.136a37.924,37.924,0,0,0-2.557-11.129,15.729,15.729,0,0,0-5.789-7.218Q992.333,481.693,986.018,481.692ZM958.646,586.061q0,13.234,4.211,19.851t13.235,6.616a25.468,25.468,0,0,0,11.955-2.781,27,27,0,0,0,9.174-7.895,36.981,36.981,0,0,0,5.865-12.408,60.838,60.838,0,0,0,2.029-16.317V549.968l-13.834.9a49.2,49.2,0,0,0-15.49,2.933,25.1,25.1,0,0,0-10.076,6.843,26.23,26.23,0,0,0-5.414,10.676A58.439,58.439,0,0,0,958.646,586.061Z" transform="translate(-85.8 -394.769)"/><path d="M1348.148,468.007a51.781,51.781,0,0,1-2.781,17.821,38.257,38.257,0,0,1-7.895,13.083,48.221,48.221,0,0,1-12.257,9.4,86.152,86.152,0,0,1-15.866,6.617v1.5a84.9,84.9,0,0,1,19.475,7.443,58.672,58.672,0,0,1,15.19,11.581,49.419,49.419,0,0,1,9.924,15.865,55.311,55.311,0,0,1,3.535,20.3q0,30.379-22.107,45.342t-66.02,14.964h-99.255V615.536h12.632a28.365,28.365,0,0,0,6.391-.677,10.234,10.234,0,0,0,5.038-2.782,14.9,14.9,0,0,0,3.384-6.015,34.977,34.977,0,0,0,1.278-10.527V448.005a32.385,32.385,0,0,0-1.278-10,14.48,14.48,0,0,0-3.459-5.94,11.922,11.922,0,0,0-5.113-2.932,22.958,22.958,0,0,0-6.241-.827h-12.632V412.063h89.931q43.911,0,66.02,13.535T1348.148,468.007ZM1247.39,507.559h11.73q10.827,0,17.971-2.256a25.3,25.3,0,0,0,11.43-6.993,27.425,27.425,0,0,0,6.09-12.257,78.286,78.286,0,0,0,1.8-18.046,64.8,64.8,0,0,0-2.03-17.6,25.2,25.2,0,0,0-6.542-11.43,25.9,25.9,0,0,0-11.731-6.241,70.852,70.852,0,0,0-17.594-1.88H1247.39Zm0,105.571h20.452a59,59,0,0,0,17.445-2.255,25.6,25.6,0,0,0,11.731-7.294,30.407,30.407,0,0,0,6.542-13.159,83.148,83.148,0,0,0,2.029-19.852,93.908,93.908,0,0,0-1.8-19.625,32.55,32.55,0,0,0-6.166-13.76,26.522,26.522,0,0,0-11.43-8.121q-7.069-2.707-17.746-2.707H1247.39Z" transform="translate(-85.8 -394.769)"/><path d="M1377.324,615.536a41.945,41.945,0,0,0,7.294-.677,18.79,18.79,0,0,0,7.068-2.782,16.656,16.656,0,0,0,5.414-6.015q2.178-3.909,2.18-10.527V501.994q0-6.165-2.18-9.85a16.284,16.284,0,0,0-5.49-5.715,19.247,19.247,0,0,0-7.142-2.632,46.549,46.549,0,0,0-7.144-.6h-3.609V466.8h72.336V595.535q0,6.62,2.18,10.527a16.623,16.623,0,0,0,5.415,6.015,18.785,18.785,0,0,0,7.143,2.782,42.445,42.445,0,0,0,7.219.677h3.608v16.393h-97.9V615.536Zm17.6-198.661a23.019,23.019,0,0,1,2.03-10.076,18.263,18.263,0,0,1,5.565-6.842,24.287,24.287,0,0,1,8.271-3.91,41.247,41.247,0,0,1,20.377,0,25.081,25.081,0,0,1,8.422,3.91,19.319,19.319,0,0,1,5.79,6.842,21.686,21.686,0,0,1,2.181,10.076,21.325,21.325,0,0,1-2.181,9.926,20,20,0,0,1-5.79,6.918,25.3,25.3,0,0,1-8.422,4.06,39.033,39.033,0,0,1-20.377,0,24.513,24.513,0,0,1-8.271-4.06,18.894,18.894,0,0,1-5.565-6.918A22.63,22.63,0,0,1,1394.919,416.875Z" transform="translate(-85.8 -394.769)"/><path d="M1585.91,631.929H1483.046V615.536h.9a56.678,56.678,0,0,0,9.625-.752,17.414,17.414,0,0,0,7.519-3.083,14.851,14.851,0,0,0,4.887-6.691,32.047,32.047,0,0,0,1.73-11.58V504.1a31.16,31.16,0,0,0-1.579-10.9,14.223,14.223,0,0,0-4.512-6.392,15.41,15.41,0,0,0-6.992-2.932,56.086,56.086,0,0,0-9.174-.677h-.9V466.8h62.26l6.166,24.062h1.5a70.13,70.13,0,0,1,6.618-12.107,33.782,33.782,0,0,1,8.647-8.647,36.692,36.692,0,0,1,11.88-5.188,67.333,67.333,0,0,1,16.317-1.73q18.195,0,26.769,6.392t8.572,18.573q0,14.136-10.226,21.956t-28.874,7.821a80.85,80.85,0,0,0-.677-11.129,23.418,23.418,0,0,0-2.406-7.971,12,12,0,0,0-4.662-4.812,14.684,14.684,0,0,0-7.293-1.654,15.968,15.968,0,0,0-9.325,2.707,23.873,23.873,0,0,0-6.617,6.992,41.931,41.931,0,0,0-4.436,9.7,84.215,84.215,0,0,0-2.707,10.9,90.632,90.632,0,0,0-1.279,10.453q-.3,4.962-.3,8.571v53.238a29.821,29.821,0,0,0,1.655,10.9,13.885,13.885,0,0,0,4.512,6.24,15.768,15.768,0,0,0,6.842,2.782,50.671,50.671,0,0,0,8.5.677h9.925Z" transform="translate(-85.8 -394.769)"/><path d="M1774.347,631.929l-6.768-21.806h-1.5A53.584,53.584,0,0,1,1756,622.98a41.622,41.622,0,0,1-11.58,7.52,49.481,49.481,0,0,1-13.008,3.534,107.4,107.4,0,0,1-14.061.9q-24.063,0-36.92-14.889t-12.859-46.019V505a41.06,41.06,0,0,0-1.2-10.978,14.244,14.244,0,0,0-3.76-6.617,13.77,13.77,0,0,0-6.541-3.309,43.861,43.861,0,0,0-9.549-.9h-.6V466.8h68.426v98.654a128.551,128.551,0,0,0,1.128,17.9,46.514,46.514,0,0,0,3.835,13.61,21.563,21.563,0,0,0,7.218,8.723,19.545,19.545,0,0,0,11.28,3.083,24.056,24.056,0,0,0,12.707-3.234,24.528,24.528,0,0,0,8.722-9.324,47.986,47.986,0,0,0,4.963-14.738A108.953,108.953,0,0,0,1765.774,562V502.9q0-6.767-1.8-10.677a14.035,14.035,0,0,0-4.813-5.94,16.172,16.172,0,0,0-7.068-2.557,66.889,66.889,0,0,0-8.572-.526h-.9V466.8h69.931V596.137q0,6.767,1.579,10.6a13.005,13.005,0,0,0,4.286,5.789,14.186,14.186,0,0,0,6.466,2.482,59.715,59.715,0,0,0,8.271.526h2.557v16.393Z" transform="translate(-85.8 -394.769)"/></svg>